<svg width="16" height="18" viewBox="0 0 16 18" fill="none" xmlns="http://www.w3.org/2000/svg">
<path fill-rule="evenodd" clip-rule="evenodd" d="M14.9059 3.3691C15.2301 3.3691 15.5 3.63826 15.5 3.98076V4.29742C15.5 4.63159 15.2301 4.90908 14.9059 4.90908H1.09488C0.769883 4.90908 0.5 4.63159 0.5 4.29742V3.98076C0.5 3.63826 0.769883 3.3691 1.09488 3.3691H3.52464C4.01821 3.3691 4.44775 3.01827 4.55879 2.52327L4.68603 1.95495C4.88378 1.18079 5.53458 0.666626 6.27939 0.666626H9.72061C10.4573 0.666626 11.1154 1.18079 11.3059 1.91411L11.442 2.52244C11.5522 3.01827 11.9818 3.3691 12.4762 3.3691H14.9059ZM13.6713 14.945C13.925 12.5809 14.3691 6.96428 14.3691 6.90761C14.3854 6.73595 14.3294 6.57345 14.2184 6.44262C14.0993 6.32012 13.9485 6.24762 13.7824 6.24762H2.22359C2.05663 6.24762 1.89778 6.32012 1.78756 6.44262C1.67572 6.57345 1.62061 6.73595 1.62871 6.90761C1.6302 6.91803 1.64614 7.11587 1.67278 7.44662C1.79114 8.91599 2.12079 13.0085 2.33381 14.945C2.48456 16.3717 3.42064 17.2683 4.77654 17.3008C5.82284 17.325 6.90075 17.3333 8.00298 17.3333C9.04118 17.3333 10.0956 17.325 11.1743 17.3008C12.5772 17.2767 13.5125 16.3959 13.6713 14.945Z" fill="#CF3636"/>
</svg>
